<svg id="visual" viewBox="0 0 900 600" width="900" height="600" xmlns="http://www.w3.org/2000/svg" xmlns:xlink="http://www.w3.org/1999/xlink" version="1.1"><g transform="translate(961.885767823329 607.334864268476)"><path d="M86 -148.9C120 -93.8 161.7 -80 170.3 -55C178.8 -30.1 154.1 6 143.8 49.5C133.4 93 137.6 144 116 195.7C94.4 247.3 47.2 299.7 -20.5 327.8C-88.2 356 -176.3 360 -232.1 319.5C-287.9 279 -311.3 193.9 -285.1 127.4C-258.8 60.9 -182.9 13.1 -169.7 -63.7C-156.6 -140.5 -206.1 -246.2 -188.3 -306.6C-170.5 -366.9 -85.2 -382 -29.6 -341.3C26.1 -300.5 52.1 -204.1 86 -148.9" fill="#4A4AA0"></path></g></svg>