<svg width="235" height="106" viewBox="0 0 235 106" fill="none" xmlns="http://www.w3.org/2000/svg">
<circle cx="232.866" cy="1.74336" r="1.74336" transform="rotate(90 232.866 1.74336)" fill="#90CDF4"/>
<circle cx="232.866" cy="27.3122" r="1.74336" transform="rotate(90 232.866 27.3122)" fill="#90CDF4"/>
<circle cx="232.866" cy="52.882" r="1.74336" transform="rotate(90 232.866 52.882)" fill="#90CDF4"/>
<circle cx="232.866" cy="78.4509" r="1.74336" transform="rotate(90 232.866 78.4509)" fill="#90CDF4"/>
<circle cx="232.866" cy="104.021" r="1.74336" transform="rotate(90 232.866 104.021)" fill="#90CDF4"/>
<circle cx="207.298" cy="1.74336" r="1.74336" transform="rotate(90 207.298 1.74336)" fill="#90CDF4"/>
<circle cx="207.298" cy="27.3122" r="1.74336" transform="rotate(90 207.298 27.3122)" fill="#90CDF4"/>
<circle cx="207.298" cy="52.882" r="1.74336" transform="rotate(90 207.298 52.882)" fill="#90CDF4"/>
<circle cx="207.298" cy="78.4509" r="1.74336" transform="rotate(90 207.298 78.4509)" fill="#90CDF4"/>
<circle cx="207.298" cy="104.021" r="1.74336" transform="rotate(90 207.298 104.021)" fill="#90CDF4"/>
<circle cx="181.727" cy="1.74336" r="1.74336" transform="rotate(90 181.727 1.74336)" fill="#90CDF4"/>
<circle cx="181.727" cy="27.3122" r="1.74336" transform="rotate(90 181.727 27.3122)" fill="#90CDF4"/>
<circle cx="181.727" cy="52.882" r="1.74336" transform="rotate(90 181.727 52.882)" fill="#90CDF4"/>
<circle cx="181.727" cy="78.4509" r="1.74336" transform="rotate(90 181.727 78.4509)" fill="#90CDF4"/>
<circle cx="181.727" cy="104.021" r="1.74336" transform="rotate(90 181.727 104.021)" fill="#90CDF4"/>
<circle cx="156.159" cy="1.74336" r="1.74336" transform="rotate(90 156.159 1.74336)" fill="#90CDF4"/>
<circle cx="156.159" cy="27.3122" r="1.74336" transform="rotate(90 156.159 27.3122)" fill="#90CDF4"/>
<circle cx="156.159" cy="52.882" r="1.74336" transform="rotate(90 156.159 52.882)" fill="#90CDF4"/>
<circle cx="156.159" cy="78.4509" r="1.74336" transform="rotate(90 156.159 78.4509)" fill="#90CDF4"/>
<circle cx="156.159" cy="104.021" r="1.74336" transform="rotate(90 156.159 104.021)" fill="#90CDF4"/>
<circle cx="130.589" cy="1.74336" r="1.74336" transform="rotate(90 130.589 1.74336)" fill="#90CDF4"/>
<circle cx="130.589" cy="27.3122" r="1.74336" transform="rotate(90 130.589 27.3122)" fill="#90CDF4"/>
<circle cx="130.589" cy="52.882" r="1.74336" transform="rotate(90 130.589 52.882)" fill="#90CDF4"/>
<circle cx="130.589" cy="78.4509" r="1.74336" transform="rotate(90 130.589 78.4509)" fill="#90CDF4"/>
<circle cx="130.589" cy="104.021" r="1.74336" transform="rotate(90 130.589 104.021)" fill="#90CDF4"/>
<circle cx="105.02" cy="1.74336" r="1.74336" transform="rotate(90 105.02 1.74336)" fill="#90CDF4"/>
<circle cx="105.02" cy="27.3122" r="1.74336" transform="rotate(90 105.02 27.3122)" fill="#90CDF4"/>
<circle cx="105.02" cy="52.882" r="1.74336" transform="rotate(90 105.02 52.882)" fill="#90CDF4"/>
<circle cx="105.02" cy="78.4509" r="1.74336" transform="rotate(90 105.02 78.4509)" fill="#90CDF4"/>
<circle cx="105.02" cy="104.021" r="1.74336" transform="rotate(90 105.02 104.021)" fill="#90CDF4"/>
<circle cx="79.45" cy="1.74336" r="1.74336" transform="rotate(90 79.45 1.74336)" fill="#90CDF4"/>
<circle cx="79.45" cy="27.3122" r="1.74336" transform="rotate(90 79.45 27.3122)" fill="#90CDF4"/>
<circle cx="79.45" cy="52.882" r="1.74336" transform="rotate(90 79.45 52.882)" fill="#90CDF4"/>
<circle cx="79.45" cy="78.4509" r="1.74336" transform="rotate(90 79.45 78.4509)" fill="#90CDF4"/>
<circle cx="79.45" cy="104.021" r="1.74336" transform="rotate(90 79.45 104.021)" fill="#90CDF4"/>
<circle cx="53.8816" cy="1.74336" r="1.74336" transform="rotate(90 53.8816 1.74336)" fill="#90CDF4"/>
<circle cx="53.8816" cy="27.3122" r="1.74336" transform="rotate(90 53.8816 27.3122)" fill="#90CDF4"/>
<circle cx="53.8816" cy="52.882" r="1.74336" transform="rotate(90 53.8816 52.882)" fill="#90CDF4"/>
<circle cx="53.8816" cy="78.4509" r="1.74336" transform="rotate(90 53.8816 78.4509)" fill="#90CDF4"/>
<circle cx="53.8816" cy="104.021" r="1.74336" transform="rotate(90 53.8816 104.021)" fill="#90CDF4"/>
<circle cx="28.3113" cy="1.74336" r="1.74336" transform="rotate(90 28.3113 1.74336)" fill="#90CDF4"/>
<circle cx="28.3113" cy="27.3122" r="1.74336" transform="rotate(90 28.3113 27.3122)" fill="#90CDF4"/>
<circle cx="28.3113" cy="52.882" r="1.74336" transform="rotate(90 28.3113 52.882)" fill="#90CDF4"/>
<circle cx="28.3113" cy="78.4509" r="1.74336" transform="rotate(90 28.3113 78.4509)" fill="#90CDF4"/>
<circle cx="28.3113" cy="104.021" r="1.74336" transform="rotate(90 28.3113 104.021)" fill="#90CDF4"/>
<circle cx="2.74297" cy="1.74336" r="1.74336" transform="rotate(90 2.74297 1.74336)" fill="#90CDF4"/>
<circle cx="2.74297" cy="27.3122" r="1.74336" transform="rotate(90 2.74297 27.3122)" fill="#90CDF4"/>
<circle cx="2.74297" cy="52.882" r="1.74336" transform="rotate(90 2.74297 52.882)" fill="#90CDF4"/>
<circle cx="2.74297" cy="78.4509" r="1.74336" transform="rotate(90 2.74297 78.4509)" fill="#90CDF4"/>
<circle cx="2.74297" cy="104.021" r="1.74336" transform="rotate(90 2.74297 104.021)" fill="#90CDF4"/>
</svg>
