<?xml version="1.0" encoding="UTF-8" standalone="no"?> <svg width="64" height="64" viewBox="0 0 64 64" fill="none" xmlns="http://www.w3.org/2000/svg">
<path d="M53.5 20.32C53.5 19.3917 53.1312 18.5015 52.4749 17.8451C51.8185 17.1887 50.9283 16.82 50 16.82H26.38C25.71 15.82 25.27 14.19 24 14.23H14C13.0717 14.23 12.1815 14.5987 11.5251 15.2551C10.8687 15.9115 10.5 16.8017 10.5 17.73V46.27C10.5 47.1982 10.8687 48.0885 11.5251 48.7448C12.1815 49.4012 13.0717 49.77 14 49.77H50C50.9283 49.77 51.8185 49.4012 52.4749 48.7448C53.1312 48.0885 53.5 47.1982 53.5 46.27V24.91C53.4961 24.4961 53.4182 24.0864 53.27 23.7C53.68 23.22 53.44 20.91 53.5 20.32ZM50 19.82C50.75 19.82 50.44 20.93 50.5 21.46C50.3352 21.428 50.1678 21.4112 50 21.41H29.09L28.15 19.82H50ZM50.5 46.27C50.5 46.4026 50.4473 46.5298 50.3536 46.6235C50.2598 46.7173 50.1326 46.77 50 46.77H14C13.8674 46.77 13.7402 46.7173 13.6464 46.6235C13.5527 46.5298 13.5 46.4026 13.5 46.27V17.73C13.5 17.5974 13.5527 17.4702 13.6464 17.3764C13.7402 17.2826 13.8674 17.23 14 17.23H23.14L26.94 23.67C27.0714 23.8955 27.2597 24.0826 27.4861 24.2124C27.7125 24.3423 27.969 24.4104 28.23 24.41H50C50.1326 24.41 50.2598 24.4626 50.3536 24.5564C50.4473 24.6502 50.5 24.7774 50.5 24.91V46.27Z" fill="url(#paint0_linear_121:2012)"/>
<defs>
<linearGradient id="paint0_linear_121:2012" x1="10.5" y1="32" x2="53.52" y2="32" gradientUnits="userSpaceOnUse">
<stop stop-color="#19DD33"/>
<stop offset="0.43" stop-color="#0FA922"/>
<stop offset="0.8" stop-color="#088215"/>
<stop offset="1" stop-color="#057310"/>
</linearGradient>
</defs>
</svg>
