<svg id="visual" viewBox="0 0 900 450" width="900" height="450" xmlns="http://www.w3.org/2000/svg" xmlns:xlink="http://www.w3.org/1999/xlink" version="1.1"><path d="M294 0L306.3 9.3C318.7 18.7 343.3 37.3 356.3 56.2C369.3 75 370.7 94 355.7 112.8C340.7 131.7 309.3 150.3 313.5 169C317.7 187.7 357.3 206.3 359.5 225C361.7 243.7 326.3 262.3 307 281.2C287.7 300 284.3 319 299 337.8C313.7 356.7 346.3 375.3 353.2 394C360 412.7 341 431.3 331.5 440.7L322 450L0 450L0 440.7C0 431.3 0 412.7 0 394C0 375.3 0 356.7 0 337.8C0 319 0 300 0 281.2C0 262.3 0 243.7 0 225C0 206.3 0 187.7 0 169C0 150.3 0 131.7 0 112.8C0 94 0 75 0 56.2C0 37.3 0 18.7 0 9.3L0 0Z" fill="#5050a9"></path><path d="M345 0L330.3 9.3C315.7 18.7 286.3 37.3 284.3 56.2C282.3 75 307.7 94 319 112.8C330.3 131.7 327.7 150.3 319 169C310.3 187.7 295.7 206.3 301.8 225C308 243.7 335 262.3 333 281.2C331 300 300 319 296.5 337.8C293 356.7 317 375.3 333.7 394C350.3 412.7 359.7 431.3 364.3 440.7L369 450L0 450L0 440.7C0 431.3 0 412.7 0 394C0 375.3 0 356.7 0 337.8C0 319 0 300 0 281.2C0 262.3 0 243.7 0 225C0 206.3 0 187.7 0 169C0 150.3 0 131.7 0 112.8C0 94 0 75 0 56.2C0 37.3 0 18.7 0 9.3L0 0Z" fill="#47479a"></path><path d="M224 0L228 9.3C232 18.7 240 37.3 243.5 56.2C247 75 246 94 249.8 112.8C253.7 131.7 262.3 150.3 256.2 169C250 187.7 229 206.3 230.7 225C232.3 243.7 256.7 262.3 272.7 281.2C288.7 300 296.3 319 296.3 337.8C296.3 356.7 288.7 375.3 281.8 394C275 412.7 269 431.3 266 440.7L263 450L0 450L0 440.7C0 431.3 0 412.7 0 394C0 375.3 0 356.7 0 337.8C0 319 0 300 0 281.2C0 262.3 0 243.7 0 225C0 206.3 0 187.7 0 169C0 150.3 0 131.7 0 112.8C0 94 0 75 0 56.2C0 37.3 0 18.7 0 9.3L0 0Z" fill="#3f3d8c"></path><path d="M272 0L270 9.3C268 18.7 264 37.3 261.2 56.2C258.3 75 256.7 94 249.2 112.8C241.7 131.7 228.3 150.3 219.8 169C211.3 187.7 207.7 206.3 214.2 225C220.7 243.7 237.3 262.3 240.5 281.2C243.7 300 233.3 319 223.5 337.8C213.7 356.7 204.3 375.3 212.8 394C221.3 412.7 247.7 431.3 260.8 440.7L274 450L0 450L0 440.7C0 431.3 0 412.7 0 394C0 375.3 0 356.7 0 337.8C0 319 0 300 0 281.2C0 262.3 0 243.7 0 225C0 206.3 0 187.7 0 169C0 150.3 0 131.7 0 112.8C0 94 0 75 0 56.2C0 37.3 0 18.7 0 9.3L0 0Z" fill="#36347e"></path><path d="M206 0L208.8 9.3C211.7 18.7 217.3 37.3 213.8 56.2C210.3 75 197.7 94 183.2 112.8C168.7 131.7 152.3 150.3 156.8 169C161.3 187.7 186.7 206.3 200.3 225C214 243.7 216 262.3 204.2 281.2C192.3 300 166.7 319 157.3 337.8C148 356.7 155 375.3 167 394C179 412.7 196 431.3 204.5 440.7L213 450L0 450L0 440.7C0 431.3 0 412.7 0 394C0 375.3 0 356.7 0 337.8C0 319 0 300 0 281.2C0 262.3 0 243.7 0 225C0 206.3 0 187.7 0 169C0 150.3 0 131.7 0 112.8C0 94 0 75 0 56.2C0 37.3 0 18.7 0 9.3L0 0Z" fill="#2e2c70"></path><path d="M97 0L102.7 9.3C108.3 18.7 119.7 37.3 121.5 56.2C123.3 75 115.7 94 118.5 112.8C121.3 131.7 134.7 150.3 143.8 169C153 187.7 158 206.3 152.3 225C146.7 243.7 130.3 262.3 119.2 281.2C108 300 102 319 109.5 337.8C117 356.7 138 375.3 140.5 394C143 412.7 127 431.3 119 440.7L111 450L0 450L0 440.7C0 431.3 0 412.7 0 394C0 375.3 0 356.7 0 337.8C0 319 0 300 0 281.2C0 262.3 0 243.7 0 225C0 206.3 0 187.7 0 169C0 150.3 0 131.7 0 112.8C0 94 0 75 0 56.2C0 37.3 0 18.7 0 9.3L0 0Z" fill="#252462"></path><path d="M82 0L78.5 9.3C75 18.7 68 37.3 71.5 56.2C75 75 89 94 95.3 112.8C101.7 131.7 100.3 150.3 97.2 169C94 187.7 89 206.3 83.7 225C78.3 243.7 72.7 262.3 77.5 281.2C82.3 300 97.7 319 107.3 337.8C117 356.7 121 375.3 120.2 394C119.3 412.7 113.7 431.3 110.8 440.7L108 450L0 450L0 440.7C0 431.3 0 412.7 0 394C0 375.3 0 356.7 0 337.8C0 319 0 300 0 281.2C0 262.3 0 243.7 0 225C0 206.3 0 187.7 0 169C0 150.3 0 131.7 0 112.8C0 94 0 75 0 56.2C0 37.3 0 18.7 0 9.3L0 0Z" fill="#1d1c55"></path><path d="M45 0L42 9.3C39 18.7 33 37.3 35.8 56.2C38.7 75 50.3 94 55.7 112.8C61 131.7 60 150.3 52.5 169C45 187.7 31 206.3 25.3 225C19.7 243.7 22.3 262.3 27 281.2C31.7 300 38.3 319 37.5 337.8C36.7 356.7 28.3 375.3 28 394C27.7 412.7 35.3 431.3 39.2 440.7L43 450L0 450L0 440.7C0 431.3 0 412.7 0 394C0 375.3 0 356.7 0 337.8C0 319 0 300 0 281.2C0 262.3 0 243.7 0 225C0 206.3 0 187.7 0 169C0 150.3 0 131.7 0 112.8C0 94 0 75 0 56.2C0 37.3 0 18.7 0 9.3L0 0Z" fill="#141448"></path></svg>