<?xml version="1.0" encoding="UTF-8"?>
<svg width="700pt" height="700pt" version="1.1" viewBox="0 0 700 700" xmlns="http://www.w3.org/2000/svg" xmlns:xlink="http://www.w3.org/1999/xlink">
 <g>
  <path d="m383.34 93.199c-34.148-34.215-82.27-50.598-130.2-44.328-47.934 6.2695-90.223 34.48-114.42 76.328-24.199 41.848-27.551 92.57-9.0742 137.24 18.477 44.672 56.68 78.203 103.37 90.73 46.688 12.527 96.551 2.6211 134.91-26.801s60.844-75.012 60.84-123.35c0.13672-41.203-16.223-80.75-45.422-109.82zm-12.375 207.27c-30.301 30.371-73.008 44.918-115.55 39.359-42.543-5.5586-80.074-30.594-101.55-67.73-21.48-37.137-24.461-82.156-8.0664-121.8s50.301-69.41 91.738-80.527c41.438-11.121 85.688-2.332 119.73 23.777 34.039 26.113 54 66.574 53.996 109.48 0.12109 36.559-14.387 71.648-40.297 97.445zm236.68 150.06-110.85-110.86c-5.9492-5.9336-14.008-9.2656-22.41-9.2656-8.4023 0-16.461 3.332-22.406 9.2656l-2.3711 2.3711-22.957-22.953c-0.77734-0.875-0.79297-2.1875-0.035157-3.0781 23.746-32.16 36.758-70.984 37.195-110.96 0.4375-39.973-11.727-79.07-34.766-111.74-23.039-32.672-55.781-57.258-93.578-70.27-37.801-13.012-78.738-13.793-117-2.2266-38.27 11.566-71.922 34.891-96.184 66.664-24.266 31.77-37.906 70.375-38.988 110.34-0.80078 25.863 3.7266 51.617 13.305 75.656 9.582 24.039 24.004 45.852 42.371 64.078 32.293 32.027 74.941 51.5 120.3 54.914 45.352 3.418 90.438-9.4414 127.16-36.27 0.90234-0.77734 2.2383-0.76172 3.1211 0.035157l22.934 22.934-2.3086 2.3086c-5.9453 5.9414-9.2852 14-9.2852 22.406s3.3398 16.469 9.2852 22.41l110.86 110.86c5.9492 5.9297 14.008 9.2617 22.41 9.2617 8.3984 0 16.457-3.332 22.406-9.2617l41.805-41.805c5.9297-5.9492 9.2617-14.008 9.2617-22.41 0-8.3984-3.332-16.457-9.2656-22.406zm-205.73-106.67c-3.3789-3.3672-7.8633-5.3945-12.625-5.7148-4.7578-0.32031-9.4766 1.0938-13.273 3.9805-33.352 24.348-74.285 36.012-115.46 32.906-41.176-3.1055-79.898-20.777-109.22-49.852-22.211-22.203-37.949-50.043-45.523-80.52-7.5742-30.477-6.6992-62.445 2.5312-92.465 9.2266-30.016 26.465-56.953 49.852-77.91 31.859-28.555 73.18-44.277 115.96-44.125 42.781 0.15625 83.988 16.176 115.64 44.961 31.652 28.785 51.5 68.289 55.703 110.87 4.1992 42.578-7.543 85.199-32.953 119.62-2.8828 3.793-4.2969 8.4961-3.9805 13.25 0.31641 4.7539 2.3438 9.2305 5.7031 12.605l22.957 22.957-12.375 12.379zm193.36 139.11-41.801 41.801c-5.5508 5.5234-14.523 5.5234-20.074 0l-6.2031-6.2031 6.1875-6.1875c1.2812-1.2852 1.2812-3.3633 0-4.6484-1.2852-1.2852-3.3672-1.2852-4.6484 0l-6.1875 6.1875-89.148-89.148 6.1875-6.1875c1.2812-1.2852 1.2812-3.3633 0-4.6484-1.2852-1.2852-3.3672-1.2852-4.6484 0l-6.1875 6.1875-6.2031-6.2031v-0.003907c-2.6641-2.6602-4.1641-6.2695-4.1641-10.035s1.5-7.375 4.1641-10.035l41.801-41.801c5.5508-5.5273 14.523-5.5273 20.074 0l6.2031 6.2031-6.1875 6.1875v-0.003906c-1.2852 1.2852-1.2852 3.3672 0 4.6484 1.2852 1.2852 3.3633 1.2852 4.6484 0l6.1875-6.1875 89.148 89.152-6.1875 6.1875c-1.2812 1.2812-1.2812 3.3633 0 4.6484 1.2852 1.2812 3.3672 1.2812 4.6484 0l6.1875-6.1875 6.2031 6.2031c5.5273 5.5508 5.5273 14.523 0 20.074zm-30.949-6.1797c1.2734 1.2891 1.2734 3.3594 0 4.6484l-12.383 12.383c-1.2812 1.2812-3.3633 1.2812-4.6484 0-1.2812-1.2852-1.2812-3.3672 0-4.6484l12.383-12.383c1.2852-1.2812 3.3633-1.2812 4.6484 0zm-93.797-93.797c1.2734 1.2891 1.2734 3.3594 0 4.6484l-12.383 12.383c-1.2852 1.2812-3.3633 1.2812-4.6484 0-1.2852-1.2852-1.2852-3.3672 0-4.6484l12.383-12.383c1.2812-1.2812 3.3633-1.2812 4.6484 0zm-159.89-180.01 13.918-13.918h0.003907c6.6289-6.6328 9.2188-16.297 6.793-25.355-2.4297-9.0547-9.5039-16.133-18.559-18.559-9.0586-2.4258-18.723 0.16406-25.355 6.793l-13.918 13.918-13.922-13.918c-5-4.7695-11.648-7.4336-18.562-7.4336s-13.562 2.6641-18.562 7.4336c-4.918 4.9258-7.6797 11.602-7.6797 18.559 0 6.9609 2.7617 13.637 7.6797 18.562l13.918 13.918-13.918 13.918c-6.6328 6.6328-9.2266 16.297-6.7969 25.355 2.4258 9.0586 9.5 16.137 18.559 18.566 9.0586 2.4258 18.723-0.16016 25.355-6.793l13.93-13.918 13.918 13.918c6.6328 6.6328 16.297 9.2188 25.355 6.793 9.0586-2.4297 16.137-9.5078 18.562-18.566 2.4258-9.0586-0.16406-18.723-6.7969-25.355zm1.5469 38.676c-1.6406 1.6406-3.8672 2.5625-6.1875 2.5625-2.3203 0-4.543-0.92188-6.1836-2.5625l-20.109-20.109c-1.6367-1.6406-3.8633-2.5625-6.1836-2.5625s-4.5469 0.92188-6.1875 2.5625l-20.125 20.109c-3.457 3.3047-8.9062 3.3047-12.363 0-1.6406-1.6406-2.5625-3.8672-2.5625-6.1875 0-2.3203 0.92188-4.5469 2.5625-6.1875l20.105-20.113c1.6445-1.6406 2.5664-3.8672 2.5664-6.1875s-0.92188-4.5469-2.5664-6.1875l-20.105-20.105c-2.5-2.5039-3.25-6.2656-1.8945-9.5352 1.3516-3.2695 4.543-5.3984 8.082-5.4023 2.3203-0.007812 4.5508 0.91797 6.1875 2.5664l20.113 20.105c1.6406 1.6406 3.8672 2.5625 6.1875 2.5625s4.543-0.92188 6.1836-2.5625l20.105-20.105h0.003906c3.4141-3.418 8.9531-3.418 12.371 0 3.418 3.4141 3.418 8.957 0 12.371l-20.105 20.105c-1.6406 1.6406-2.5625 3.8672-2.5625 6.1875s0.92188 4.5469 2.5625 6.1875l20.105 20.113v0.011719c1.6406 1.6367 2.5625 3.8594 2.5625 6.1797 0 2.3203-0.92188 4.543-2.5625 6.1836z"/>
 </g>
</svg>
