<svg xmlns="http://www.w3.org/2000/svg" xml:space="preserve" width="117.457mm" height="116.027mm" version="1.1" viewBox="0 0 11746 11603" style="fill-rule:evenodd;image-rendering:optimizeQuality;shape-rendering:geometricPrecision;text-rendering:geometricPrecision"><defs><style type="text/css">
    .fil0 {fill:#C6A141}
   </style></defs><path class="fil0" d="M5873 1312l867 2827 2957-49-2421 1698 960 2798-2363-1778-2364 1778 961-2798-2421-1698 2957 49 867-2827zm5472 6554c-267 764-511 725-844 851l325 210c-222 335-480 654-775 950-295 295-615 552-950 775l-321-497c306-204 593-436 853-696 260-260 493-547 696-853l137 88c35-203 137-377 317-524 149-121 341-145 562-304zm-9528-4707c52 68 33 170-42 228-35 27-75 39-114 38-57-59-140-111-242-150 26-79 42-156 49-227-82 21-169 58-255 108 16-90 20-177 14-255-71 32-145 78-217 136-19-8-37-15-55-21-1 0-1-1-2-2-77-100-57-246 45-324 56-43 125-57 189-43 11-47 39-92 82-125 92-71 219-60 283 23 7 10 13 20 18 30 5-4 10-9 15-13 75-58 179-49 231 19 48 63 35 157-28 216 45 1 87 21 115 57 52 68 33 170-42 228-28 21-60 34-92 37 18 10 35 23 48 40zm2908-2929c34-145 219-242 333-229 118 14 140 45 184 96 42-15 89-21 137-15 146 17 247 135 226 262 0 4-1 8-2 12 97 24 161 108 147 197-12 73-73 130-149 149 18 33 26 71 20 110-18 105-129 178-250 164-14-2-28-5-41-9 0 1 0 2 0 2-17 106-130 181-252 166-31-4-60-13-86-27-3 66-22 122-58 162 0-2 0-5 0-8-5-147-190-266-439-297 54 21 96 48 121 79-29 18-65 34-106 46 103 73 176 160 200 235-83 18-203-2-325-57 15 51 22 99 19 140-70-11-157-69-235-163-34 52-92 91-162 101-14 2-28 3-42 3 0 0 0 1 0 2 16 110-71 213-192 231-42 6-83 1-120-13 8 58-1 111-27 155 0-3-1-6-2-8-27-107-155-174-327-189-19 28-44 57-74 85 131 20 239 68 297 127-70 56-191 93-331 98 38 40 66 82 83 122-79 25-205 4-336-63-23 45-62 84-112 109-13 6-26 11-40 15 1 1 1 1 1 2 43 99-12 224-123 278-49 24-101 30-147 21 44 72 61 144 45 211-1-3-3-5-4-8-61-103-223-128-411-80 22-1 41 1 59 5-13 33-33 67-59 102 128-4 239 23 305 69-57 65-166 121-298 150 43 32 77 67 100 102-64 34-170 39-290 10 25 78-4 171-79 228-11 9-22 16-34 22 0 1 1 1 1 2 65 84 41 211-52 283-32 25-69 40-106 45 34 45 51 93 50 142-1-2 54 56-5-6-39-41-214-92-377 20 13-4 26-6 38-7-2 34-9 73-22 114 119-45 231-56 308-34-33 79-116 167-231 237 51 16 94 38 126 63-55 59-173 101-317 106 11 49 5 103-18 154-6 13-13 25-21 36 0 0 1 1 2 1 95 49 130 180 79 291-19 40-47 72-79 94 52 26 90 62 111 107-2-1 73 27-7-3-51-18-192 40-311 197 1-1 2-1 3-2 10 33 17 72 18 115 97-83 199-131 278-136-3 85-52 196-136 301 53-2 101 3 140 16-32 77-135 160-276 213-12 5-24 9-37 13 9 36 10 75 0 113-3 14-8 26-13 39 1 0 1 0 2 0 103 26 163 141 134 255-10 39-29 74-55 101 54 14 98 41 127 80-2 0-5-1-7-1-104-15-209 73-285 219 19 27 36 60 50 99 66-109 147-187 221-217 24 82 12 203-34 329 49-19 97-28 138-29-6 72-60 165-151 250 24 35 39 78 39 124 0 13-1 26-4 39 1 0 2 0 2 0 103 0 187 91 187 204 0 39-10 76-28 107 54 1 101 15 138 44-2 0-5 1-7 1-107 12-189 132-222 301 15 17 30 37 44 58 44-114 109-203 176-245 39 73 52 188 31 316 46-27 90-45 131-53 7 57-16 134-65 214 113 7 204 110 204 236 0 1 0 2 0 2 132-80 263-62 363-9l231-358c178 303 394 590 653 850 257 256 540 470 839 647 301 169 628 308 977 402 351 93 704 137 1051 140 345-3 697-47 1046-140 351-94 678-233 981-404 297-176 580-389 835-645 260-260 476-547 654-850l231 358c122-65 292-78 454 81 14 13 26 27 37 41-34-121-11-287 138-579 54 193 173 293 200 431 36 178-9 335-127 478-48-75-102-134-145-197 32 128-9 267-110 368-44 43-103 75-163 90 55 34 101 57 158 94 0 1-1 2-2 3-143 186-298 367-469 538-171 170-351 326-538 469-1 1-2 1-3 2-37-57-59-103-93-159-16 61-48 120-91 164-150 150-384 168-542 7-159-162-146-332-81-455l-331-214 19 394c139 5 293 79 353 298 61 217-72 410-277 465-59 16-126 14-187-3 31 58 60 100 91 161-1 0-2 1-3 1-217 90-442 169-675 231-234 63-468 107-701 138-1 0-2 0-4 0-3-68 1-119-1-184-44 45-101 80-160 96-206 55-417-46-473-264-57-220 39-361 157-435l-180-351-180 351c117 74 214 215 157 435-56 218-268 319-473 264-59-16-116-51-160-96-2 65 2 116-2 184-1 0-2 0-3 0-233-31-468-75-701-138-233-62-458-141-675-231-1 0-2-1-4-1 32-61 60-103 91-161-60 17-127 19-186 3-206-55-338-248-278-465 61-219 215-293 353-298l20-394-331 214c65 123 77 293-82 455-157 161-391 143-541-8-44-43-75-102-91-163-34 56-56 102-93 159-1-1-2-1-3-2-187-143-368-299-538-469-171-171-326-352-469-538-1-1-2-2-3-3 58-37 104-60 159-94-61-15-120-47-163-90-85-85-128-197-120-307-44-30-89-56-133-77 1 81 15 171 43 262-2 4-3 7-5 11-77-46-156-80-231-100 10 56 28 115 52 175-17 20-33 42-46 64l180-116c203 306 435 593 695 853 260 260 548 492 853 696l-320 497c-335-223-655-480-950-775-296-296-553-615-776-950l83-54c-96-29-168-126-168-241 0-33 7-66 18-95-46-45-74-110-74-182 0-30 5-60 15-87-126-23-225-71-269-127 29-16 64-29 104-39-99-75-167-161-189-235 81-13 196 11 313 69-8-30-14-60-16-87-101-110-210-200-331-116 1-65 36-128 97-183-125-30-219-167-219-264 0-109 26-133 70-181-19-36-31-78-31-123 0-7 1-14 1-21-4-1-7-3-11-4-145-56-249-141-283-217 33-9 72-13 114-13-80-101-126-206-129-286 84 7 193 61 296 150-1-32 1-63 6-91-73-138-159-257-302-204 17-65 69-120 144-160-117-62-177-225-153-323 28-110 61-128 117-165-10-42-10-87 1-132 14-54 42-100 78-133-80-92-125-187-126-256 33 4 71 15 110 32-35-125-37-239-9-314 75 39 155 131 215 253 3-8 6-16 10-24-46-173-99-356-272-330 31-62 95-105 180-129-107-87-134-273-89-370 50-107 86-119 148-145-1-45 8-91 29-135 34-73 92-124 157-145-19-26-37-53-53-81-79-134-109-265-88-345 31 13 64 34 97 60 0-129 29-240 76-305 62 58 114 168 139 302 20-27 41-50 62-68 28-153 34-301-111-347 54-41 128-52 212-37-54-121 0-286 80-348 90-69 127-63 194-57 18-39 45-75 83-104 18-14 38-25 58-34 4-10 9-19 14-28-10-40-19-81-24-124-19-155 6-289 58-355 23 25 46 57 66 96 52-120 123-211 192-253 29 66 36 163 20 270 61-149 96-297-39-377 77-36 175-21 275 35-45-141 57-320 160-370 107-52 142-38 208-19 27-36 64-67 108-88 28-14 57-23 85-27 0-2 0-4 0-6-3-162 37-297 98-359 21 28 41 63 57 105 66-118 149-204 226-239 26 84 17 211-29 345 32-13 63-23 92-30 103-125 185-256 76-372 70-10 143 18 212 75 14-138 147-261 252-276 117-17 148 8 206 47 36-26 80-45 128-52 82-11 160 12 216 59 1-4 2-8 3-12 37-151 107-265 179-308 13 31 22 69 27 111 91-92 189-151 268-165 3 85-36 200-112 313 3-1 6-1 8-1 137-108 270-226 185-379 79 8 150 66 207 158zm-3537 2747c1 80-9 169-32 259 4 1 8 2 12 2 83-56 168-97 248-122-8 56-23 114-44 174 146 53 257 132 305 221-121-39-337 40-481 209-30 27-59 58-87 93-21 27-40 54-57 81-9-58-42-108-92-134-49-26-105-23-154 3-5-8-8-15-9-22 5-11 9-23 13-35 43-122 52-237 31-315 13-161 2-293-75-349 69-9 175 0 262 39 53-42 107-77 160-104zm-392 448c-32 21-65 57-95 104-1-4-1-8-2-12-12-120-53-222-103-272-37 55-57 158-47 273-32-30-64-51-93-64-11 66 17 172 81 278 16 29 35 55 53 79 43-6 86 0 126 20 3 2 7 4 11 7 3-6 6-11 10-16-1-5-3-10-5-15 16-29 30-61 42-95 40-116 47-224 22-287zm706 562c-31-23-76-43-129-55 3-2 6-4 10-5 107-53 187-128 215-192-64-17-165-1-268 48 16-40 26-78 27-110-65 12-153 75-229 172-22 29-42 58-59 87-5 1-9 3-14 4 0 4 0 7 0 11 37-7 75-2 111 16 41 21 70 57 87 101 110-5 202-35 249-77zm-296 340c77 40 105 145 64 234-21 44-55 76-93 93-76-26-171-35-276-25-12-83-31-159-57-226-64 56-126 127-180 211-26-89-61-168-101-236-50 61-96 135-134 219-16 1-31 2-45 4-6-2-11-5-16-8-114-59-160-205-104-325 31-67 87-112 150-129-10-50-5-105 19-156 51-109 169-159 263-110 11 6 21 12 30 20 2-6 5-13 8-19 41-90 138-130 215-90 71 37 101 132 71 217 41-20 87-22 128-1 77 40 105 145 64 234-16 34-39 60-66 78 20 0 41 5 60 15zm41 964c-37-12-85-15-140-9 3-2 5-5 8-8 82-86 132-183 137-254-66 6-155 56-236 138 2-44-3-83-12-113-57 33-118 123-157 240-7 22-13 43-18 65 16-1 31 1 46 5 56 15 100 55 123 108 6-2 12-4 19-7 113-42 199-106 230-165zm-795-237c-25 29-47 72-64 125-1-3-3-7-4-10-44-113-111-200-172-235-22 64-13 167 27 276-38-20-75-33-106-37 5 52 39 120 96 187 52-36 117-51 180-34 4 1 8 2 12 3 17-44 48-80 85-102-6-74-26-136-54-173zm535 632c82 22 131 114 108 205-11 43-35 78-66 101-81-11-179 0-283 32-29-78-64-149-103-209-50 68-96 151-133 243-43-81-93-152-147-209-36 70-65 152-86 241-19 6-38 12-56 18-1 0-2 0-3 0-122-32-196-159-165-283 17-68 63-122 122-151-20-44-26-96-13-148 28-113 135-184 236-157 12 3 23 7 33 12 1-7 2-13 4-20 23-92 110-149 193-128 77 20 125 102 112 187 36-27 81-38 125-26 83 21 132 113 109 204-9 35-27 64-50 87 21-4 42-4 63 1zm-638 841c-12 37-16 85-10 141-3-3-6-6-8-8-84-87-180-142-250-150 5 66 53 159 132 243-43-3-82-1-112 8 31 57 116 121 227 165 20-92 88-165 173-184-40-104-98-183-152-215zm874 0c-39 1-86 13-136 36 1-3 3-6 5-10 51-108 68-216 50-284-61 26-130 102-180 204-13-42-29-77-48-103-40 46-69 139-72 251 19 18 34 41 45 67 29-22 64-34 102-34 48 0 91 19 124 52 61-62 101-127 110-179zm-51 408c83 0 150 73 150 164 0 42-14 80-38 109-79 9-168 43-258 97-45-66-94-123-145-169-31 75-55 163-67 257-60-64-124-118-187-159-18 73-26 157-24 245-17 9-33 19-48 30-1 0-2 0-3 0-122 0-222-100-222-223 0-67 30-128 78-169-29-36-47-83-47-135 0-111 83-202 184-202 12 0 23 1 34 3 0-6-1-12-1-19 0-90 68-165 151-165 77 0 141 65 149 148 27-34 67-55 111-55 83 0 150 73 150 164 0 34-9 66-26 92 18-9 38-13 59-13zm-398 932c-3 37 5 83 23 133-3-2-6-4-9-6-100-60-202-88-269-79 20 61 87 135 181 194-42 8-77 19-104 34 38 40 115 75 210 93 31-60 85-104 148-119-2-11-3-23-3-35 0-21 3-41 9-61-61-82-130-138-186-154zm-112-559c62 45 124 105 180 175 3-2 6-5 9-8 5-95 24-184 52-260 38 39 74 84 108 135 126-81 252-119 348-104-73 50-129 155-156 290-40 65-53 179-28 311-90 8-166 63-202 138-63-85-135-146-199-172-115-103-223-172-311-146 34-58 103-133 185-177-2-64 3-126 14-182zm906 374c-38 8-82 28-127 59 1-3 2-7 3-10 29-111 24-216-7-277-55 36-108 121-138 226-20-37-43-67-67-88-31 52-41 146-21 254 68 2 129 31 172 76 33-41 78-69 130-78 37-60 57-118 55-162zm-23 215c91 0 165 82 165 181 0 14-1 28-4 41-10 8-19 17-29 26 0 0 0 0 0 0 0 0 0 0-1 0 0 1 0 1 0 1-1 0-1 1-1 1-1 0-1 0-1 1 0 0 0 0-1 0 0 0 0 0 0 0l-128-251zm124 255c-2 2-4 4-6 7 0 0-1 0-1 0 0 0 0 1 0 1-7 7-14 14-20 21 0 1 0 1-1 1 0 0 0 0 0 1-2 2-4 5-6 7 0 0 0 0 0 0 0 0 0 1 0 1-6 8-12 15-17 23-1 0-1 1-1 1-20 30-35 61-45 94l-23 27c-58-39-117-69-173-92-3 80 6 168 27 259l-3 4c-78-39-155-66-228-81 10 75 32 155 65 237-29 35-53 70-70 104l-64 41c-13 4-27 6-41 6-91 0-165-82-165-182 0-42 13-80 35-111-57-29-98-92-98-166 0-99 75-181 166-181 13 0 27 2 39 5-18-28-29-61-29-97 0-100 85-181 190-181 88 0 162 57 184 133 18-78 83-137 161-137l124 255zm-1289-2219c51 62 97 138 135 223 4-2 8-4 11-6 30-95 72-180 119-249 28 49 53 104 74 164 147-49 283-55 376-16-141 53-271 263-320 533-15-5-30-7-46-7-87 0-160 71-172 163-3-1-7-1-12-1-3 0-7 0-11 1-43-122-106-217-171-265-89-134-179-232-274-228 48-50 137-109 230-131 15-66 36-127 61-181zm4907-4969c-14 85-105 145-203 133-35-4-67-17-92-37-5-83-33-178-79-275 72-43 135-92 187-143-75-41-164-74-262-96 73-59 134-124 181-189-73-24-157-41-247-47-3-19-2-40 1-60 21-126 145-216 277-200 73 9 134 48 170 103 43-26 97-38 153-31 120 14 204 111 187 216-2 12-6 23-10 34 7 1 14 1 21 2 98 12 166 91 152 176-13 80-93 137-184 135 32 33 48 77 41 122-14 85-105 145-203 133-36-4-69-18-95-38 7 19 8 41 5 62zm-923 378c2-39-8-87-27-138 3 2 6 4 10 5 104 59 210 83 280 70-22-62-93-136-192-194 43-9 80-23 107-40-47-47-149-84-272-92-19-1-38-2-57-2-17 25-40 46-67 62 27 28 46 64 52 104 5 33 0 66-12 95 60 70 125 117 178 130zm30-859c-38-7-87-5-141 7 3-3 5-5 7-8 76-95 118-197 117-267-65 13-151 73-225 162-2-44-9-81-21-111-55 40-108 135-138 255-1 7-3 13-4 20 28 32 46 71 52 114 1 5 1 9 2 13 35 0 68 7 97 21 12-5 25-11 37-17 110-54 191-127 217-189zm-472 874c13 88-57 172-155 186-45 6-88-3-123-24-22-83-71-173-144-261 65-58 119-120 161-182-85-22-183-33-287-31 61-75 109-152 144-226-82-7-173-3-268 13-13-17-26-33-40-47 0-1 0-2 0-3-18-131 74-253 207-272 73-11 143 12 194 57 35-36 83-63 139-71 120-17 230 57 245 166 2 12 3 25 2 37 6-2 13-3 20-4 98-15 188 46 201 135 11 82-49 161-137 182 41 25 69 64 76 111 12 89-57 172-155 186-37 5-72 0-103-13 12 18 20 39 23 61zm-479-489c-40 74-94 150-162 220 3 3 7 6 10 8 104-8 202-2 288 16-36 47-79 93-129 136 106 123 166 252 165 358-113-122-391-162-689-86 2-28-2-55-13-80-31-73-110-109-192-97 1-2 3-3 4-4 102-90 169-190 190-272 93-139 152-265 111-356 67 27 159 90 218 171 70-12 137-16 199-14zm-697 1173c35 80-10 180-99 224-64 31-133 25-181-11-10-12-22-25-35-38-3-5-6-11-9-17-1-2-1-4-2-6-2 1-4 2-6 3-1 0-2 0-3 1-32-30-68-59-109-87 46-76 80-153 103-226-89 3-187 21-288 54 38-92 62-182 74-265-79 17-163 46-247 87-10-13-18-27-25-43-51-118 5-262 126-321 66-33 139-32 200-6 23-45 62-85 113-110 109-53 233-17 276 81 5 11 9 23 11 34 6-3 12-7 18-10 90-43 191-13 226 66 32 75-4 168-82 215 45 11 82 39 101 82 35 80-10 180-99 223-33 17-68 23-101 20 16 13 29 30 38 50zm457-126c-16-37-47-77-89-116 4 0 8 0 12 0 124 7 236-20 295-64-50-48-151-85-269-93 35-29 63-59 80-87-65-22-177-10-297 40-14 5-27 12-41 18-7 12-16 23-26 34 34 18 61 46 77 83 19 42 19 89 5 134 98 47 192 65 253 51zm-346-840c-40 3-89 19-141 46 2-4 3-7 5-11 51-116 66-230 46-301-63 32-133 115-183 225-14-44-32-80-52-106-43 53-71 160-70 285 92-2 175 43 213 124 4-4 9-8 14-12 96-84 158-180 168-250zm-1164 1057c-38 7-83 27-130 58 1-4 2-8 3-11 37-116 41-228 14-294-57 37-116 123-153 234-18-40-38-73-60-96-37 56-54 166-38 290 4 28 16 86 25 126 48-10 97-7 140 10 21-18 42-38 63-60 84-91 133-189 136-257zm486 711c-22-33-58-66-105-96 4 0 8-1 11-1 120-16 221-60 269-113-55-37-157-54-272-41 29-34 50-67 62-97-66-10-170 22-275 89-5 4-10 7-15 10 25 54 20 119-12 173 36 11 69 32 93 63 2 3 5 7 8 11 96 25 183 24 236 2zm-46-1100c-17 85-48 175-93 265 4 2 8 3 12 5 98-39 196-62 284-70-21 57-50 115-85 172 138 90 234 200 264 304-146-87-428-44-695 119-2 1-4 2-6 4-53-47-135-56-205-22-31-23-67-46-56-77 1-2 2-4 3-6 12-13 25-25 37-39 105-114 161-236 157-321-23 4-48 11-73 21 51-166 72-309 5-386 73 7 181 42 262 104 64-33 128-57 189-73zm2105-826c0 0 0 0-1 0 0 0 0 0 0 0 0 0 0 0 0 0 0 0 0 0 0 0 0 0 0 0 0 0 0 0-1 0-1 0 0 0 0 0 0 0 0 0 0 0 0 0 0 0 0 0 0 0 0 0 0 0 0 0 0 0 0 0-1 0 0 0 0 0 0 0 0 0 0 0 0 0 0 0 0 0 0 0 0 0-1 0-1 0 0 0 0 0 0 0 0 0 0 0 0 0 0 0 0 0 0 0 0 0 0 0 0 0 0 0 0 0 0 0 0 0 0 0 0 0 0 0 0 0 0 0 0 0 0 0 0 0 0 0 0 0 0 0 0 0-1 0-1 0 0 0 0 0 0 0 0 0 0 0 0 0 0 0 0 0 0 0 0 0 0 0 0 0 0 0 0 0 0 0 0 0 0 0 0 0 0 0 0 0 0 0 0 0 0 0 0 0 0 0 0 0 0 0 0 0-1 0-1 0 0 0 0 0 0 0 0 0 0 0 0 0 0 0 0 0 0 0 0 0 0 0 0 0 0 0 0 0 0 0 0 0 0 0 0 0 0 0 0 0 0 0 0 0 0 0 0 0 0 0 0 0 0 0 0-1 0-1 0-1 0 0 0 0 0 0 0 0 0 0 0 0 0 0 0 0 0 0 0 0 0 0 0 0 0 0 1 0 1 0 0 0 0 0 0 0 0 0 0 0 0 0 0-1 0-1 0-1 0 0 0 0 0 0 0 0 0 0 0 0 0 0 0 0 0 0 0-1 0-1 0-1 0-1 0-1 0-1 1 0 1 0 1-1 0 0 0 0 0 0 0 0 0 0 0 0 0 0 0 0 0 0 11-27 14-56 10-86-6-48-33-88-70-116 11-5 22-10 33-16 137-68 233-162 260-242-14-2-28-4-44-5 107-109 178-213 159-306 57 42 130 124 169 216 67 4 131 15 188 32-52 63-119 125-197 180 3 3 6 6 8 10 99 15 190 43 266 80-43 38-93 73-148 105 73 144 102 285 80 388-81-145-333-247-627-239-25 1-50 2-75 5-3-1-5-1-8-1l0 0zm-3486 4402c0 0 0 0 0 0 1 0 1 1 1 1 0 0 0 0 0 0 0 0 0 0 0 0 0 1 0 1 0 1 1 2 1 4 2 5 0 0 0 1 0 1 0 0 0 0 0 0 1 4 3 8 4 12l-7-20zm7 21c0 0 0 1 0 1 1 1 1 3 1 5 0 0 0 0 0 0 1 5 2 9 3 14 0 0 0 0 0 0 0 0 0 0 0 1 0 0 0 0 0 0 0 1 0 1 0 1 0 0 0 1 0 1 0 0 0 0 0 1 1-1 1-1 1-1 0 0 0 0 0 0 0 0 0 0 0 0 0 0 0 0 0 0 0 0 0 0 1 0 0 0 0 0 0 0 0 0 0 0 0 0 0 0 0 0 0 0 0 0 0 0 0 0 0 0 0 0 1 0 0 0 0 0 0 0 0 0 0-1 0-1 0 0 0 0 0 0 0 0 0 0 0 0 0 0 1 0 1 0 0 0 0 0 0 0 0 0 0 0 0 0 0 0 0 0 0 0 0 0 1 0 1 0 0 0 0 0 0 0 0 0 0 0 0 0 0 0 0 0 0 0 0 0 0-1 1-1 0 0 0 0 0 0 0 0 0 0 0 0 0 0 0 0 0 0 0 0 1 0 1 0 0 0 0 0 1 0 0 0 0 0 0 0 0 0 0 0 0 0 0-1 0-1 0-1 0 0 0 0 0 0 1 0 1 0 1 0 0 0 0 0 1 0 0 0 0 0 0 0 0 0 0 0 0 0 0 0 0 0 0 0 0 0 0 0 0 0 1 0 1 0 1-1 0 0 0 0 0 0 0 0 0 0 0 0 0 0 0 0 0 0 0 0 0 0 1 0 0 0 0 0 0 0 0 0 0 0 0 0 0 0 0 0 0 0 0 0 0 0 0 0 1 0 1 0 1 0 0 0 0 0 0 0 0 0 0 0 0 0 0 0 0 0 0 0 0 0 0 0 1 0 0 0 0 0 0 0 0 0 0-1 0-1 0 0 0 0 0 0 1 0 3 0 4-1l-22-17zm18 19c0 0 0-1 0-1l0 1zm8-3c0 0 0 0 1 0 0 0 0 0 0 0 0 0 0 0 1 0 0 0 0 0 0 0 2-1 4-2 6-2 7-31 16-62 26-93 24-70 54-132 87-180 89-183 230-340 331-356-82-57-217-79-371-62-8-63-21-122-38-176-61 59-119 133-168 220-4 1-8 3-12 4-19-92-50-176-87-247-35 48-68 103-96 165-96 2-195 41-253 80 98 16 167 138 228 295 7-10 14-20 22-28 42 47 71 132 79 236 30-10 61-12 93-4 56 14 98 57 118 111l33 37zm884 2796c1 0 1 0 1-1 0 0 0 0 1 0 0 0 0-1 0-1 0 0 1 0 1 0 0 0 0-1 0-1l-3 3zm1258 492c-226-226-419-473-584-732l-138 214c24 21 44 43 60 65 148 214 316 419 506 609 190 191 396 358 609 507 22 15 44 36 65 60l214-138c-259-166-506-359-732-585zm-237 238c-208-208-389-433-549-667-92-97-278-109-391 4-113 114-124 282-2 405 64 63 136 99 215 75 73-22 124-80 125-150 1-81-43-118-90-129-76-19-155 49-87 146-81-33-94-118-75-157 33-65 121-111 199-84 132 46 166 193 158 245-11 74-50 138-107 174l-245 152c121 152 252 301 393 442 141 141 289 271 442 393l152-246c35-57 100-95 173-106 53-8 199 25 246 157 27 79-20 167-85 199-39 20-124 6-156-74 97 67 165-11 146-88-11-46-48-90-129-89-70 0-128 51-150 124-24 79 11 152 75 215 122 123 291 112 404-2 113-113 101-299 4-391-234-159-459-341-666-548zm-914 913c261 261 547 497 851 706l196-303c-278-192-545-410-792-657-247-248-465-514-657-792l-303 195c209 304 444 590 705 851zm3019-73c-309-83-600-200-872-341l-13 254c31 6 60 15 84 26 236 111 484 205 744 275 259 69 521 112 780 134 27 2 56 9 87 19l116-226c-307-14-618-58-926-141zm-87 325c-284-76-553-180-809-303-128-38-295 45-336 199-42 155 33 306 201 351 86 23 167 18 223-42 52-56 67-132 33-192-40-71-96-81-142-68-76 22-110 121-3 171-86 12-140-55-143-99-4-72 49-157 130-172 138-26 240 84 260 133 27 70 26 145-6 204l-136 254c181 72 368 135 561 187 193 51 386 90 579 119l9-289c2-66 39-132 97-179 42-33 185-77 291 14 63 55 66 154 27 215-24 36-105 67-173 13 118 11 137-91 83-149-33-34-87-54-157-12-60 35-85 108-68 183 19 80 86 125 173 148 167 45 308-49 349-203 42-155-62-310-192-341-282-21-568-66-851-142zm-335 1248c357 95 723 156 1090 185l18-360c-337-27-676-83-1014-173-338-91-660-212-965-357l-165 321c333 158 680 288 1036 384zm123-460c356 96 721 153 1087 177l-29 591c-402-26-807-89-1210-197-404-108-786-256-1147-435l270-526c329 163 674 295 1029 390zm2455-1113c-309 83-619 127-926 141l116 226c30-10 60-17 86-19 260-22 521-65 781-134 260-70 508-164 743-275 25-11 53-20 85-26l-13-254c-272 141-563 258-872 341zm87 325c-283 76-569 121-851 142-130 31-234 186-192 341 41 154 181 248 349 203 86-23 154-68 172-148 18-75-7-148-67-183-70-42-124-22-157 12-55 58-35 160 83 149-69 54-149 23-173-13-40-61-36-160 27-215 106-91 249-47 291-14 58 47 95 113 97 179l9 289c193-29 386-68 579-119 193-52 380-115 561-187l-136-254c-32-59-33-134-6-204 20-49 122-159 259-133 82 16 135 100 130 172-2 44-56 111-142 99 107-50 73-149-3-171-46-13-102-3-142 68-34 60-20 136 33 192 56 60 137 65 223 42 168-45 242-196 201-351-41-154-209-237-337-199-255 123-524 227-808 303zm334 1248c357-96 704-226 1037-384l-165-321c-305 145-627 266-965 357-338 90-677 146-1014 173l18 360c367-29 733-90 1089-185zm-123-460c356-95 700-227 1029-390l271 526c-361 179-743 327-1147 435-403 108-809 171-1210 197l-29-591c366-24 731-81 1086-177zm2720-1040c-261 261-547 497-850 706l-196-303c278-192 545-410 792-657 247-248 465-514 657-792l303 195c-209 304-444 590-706 851zm-913-913c208-208 389-432 549-667 91-97 278-109 391 4 113 114 124 282 1 405-63 63-136 99-214 75-74-22-124-80-125-150-1-81 43-118 89-129 77-19 156 49 88 146 81-33 94-118 75-157-33-64-121-111-199-84-133 46-166 193-158 245 11 74 50 138 106 174l246 152c-122 152-252 301-393 442-141 141-289 271-442 393l-152-246c-35-57-100-95-174-106-52-8-199 25-245 157-27 79 20 167 85 199 38 20 124 6 156-74-97 68-165-11-146-88 11-46 48-90 129-89 70 0 128 51 150 125 24 78-12 151-75 214-122 123-291 112-404-1-113-114-101-300-4-391 234-160 459-341 666-549zm-238-238c226-226 420-473 585-732l138 214c-24 21-44 43-60 65-149 214-316 419-506 609-191 191-396 358-609 507-22 15-45 36-66 60l-213-138c258-165 505-359 731-585zm-1184-8092c-159-5-304-57-436-159-103-80-151-196-251-318 477 61 575 204 666 381-63-34-137-70-226-109 78 82 166 145 247 205zm-195 420c-89 9-184 16-281 43 83 12 154 20 217 23-156 97-299 162-668-21 133-48 227-117 341-130 146-17 275 13 391 85zm962-133c-157-26-295-97-415-216-93-94-128-217-213-352 467 121 548 278 618 469-59-43-128-89-212-139 68 92 148 167 222 238zm-113 438c-94-3-196-8-301 3 87 22 162 37 228 48-173 66-331 107-707-101 146-26 251-76 373-73 156 2 291 44 407 123zm856 29c-152-52-278-145-377-284-78-109-93-238-157-388 443 198 499 368 539 571-52-53-114-110-189-174 53 103 122 192 184 275zm-336 357c-83-7-171-17-264-9 74 25 139 43 196 57-156 60-296 94-611-132 129-20 225-66 331-58 136 9 251 57 348 142zm881 163c-142-76-252-189-329-344-60-122-56-254-95-414 406 267 436 447 445 657-44-61-96-128-160-204 36 112 90 211 139 305zm-321 250c-81-19-167-40-259-45 70 35 131 62 186 84-163 39-306 55-587-214 130-4 231-37 335-15 134 28 241 92 325 190zm911 367c-134-98-232-228-294-396-48-131-30-262-54-429 379 330 391 515 379 727-37-68-83-143-140-229 26 118 70 225 109 327zm-401 300c-75-38-153-80-242-107 60 52 113 93 160 128-167-1-310-19-517-351 127 28 233 19 329 66 123 59 211 147 270 264zm875 480c-112-117-182-261-208-437-21-137 24-266 35-435 307 386 280 571 224 779-22-72-52-154-90-248 1 121 22 234 39 341zm-365 160c-73-39-151-83-239-111 58 53 110 96 157 131-168-3-311-25-510-364 127 31 233 24 329 73 121 62 208 153 263 271zm759 686c-93-134-140-289-138-468 2-140 67-261 105-429 243 432 187 613 98 812-11-76-27-162-50-261-18 120-15 237-15 346zm-493 46c-67-57-138-120-222-171 50 67 96 123 138 169-167-46-307-105-457-489 122 63 229 84 317 157 113 92 186 203 224 334zm690 803c-64-134-84-279-55-440 22-126 98-225 156-370 155 421 78 576-30 743 1-70-1-149-7-242-34 106-49 211-64 309zm-494-102c-61-66-124-139-202-201 42 73 80 134 116 186-163-71-297-149-395-547 116 80 221 117 300 201 102 108 160 228 181 361zm559 848c-46-153-40-317 20-495 48-140 150-247 241-406 93 481-20 650-170 830 14-78 26-167 37-271-58 116-93 233-128 342zm-499-49c-43-82-87-169-148-253 22 81 44 150 66 210-146-121-259-238-248-633 94 112 191 182 248 286 73 132 99 261 82 390zm413 898c-21-154 7-306 88-459 63-119 173-195 280-322 19 472-109 603-274 736 24-69 48-150 72-245-69 96-118 197-166 290zm-455-212c-32-77-65-160-115-238 13 78 26 145 40 202-125-107-221-214-167-608 78 104 163 165 206 263 55 125 66 252 36 381zm336 932c-4-154 40-300 138-440 76-110 194-173 314-286-34 465-176 580-354 692 31-65 64-142 99-232-80 86-139 179-197 266zm-446-85c-26-80-51-167-95-252 3 80 10 148 18 207-123-123-214-242-108-627 73 113 157 186 192 289 44 132 41 259-7 383zm264 751c23-163 88-308 201-437 87-100 204-142 332-237-110 484-258 576-438 659 40-63 82-137 129-226-87 75-157 162-224 241zm-534-99c-12-88-22-183-51-278-8 84-12 155-12 218-95-149-160-288-8-668 49 130 116 219 132 332 22 145 0 276-61 396zm-121 644c-15-84-29-174-63-264-7 79-9 148-8 208-110-141-187-273-26-639 58 123 135 208 157 315 27 139 6 264-60 380zm208-225c-12-135 18-283 93-446 58-128 154-229 250-376-3 427-117 584-262 754 23-71 47-152 71-246-62 108-108 214-152 314zm360-1058c-37-125-37-261 5-411 32-117 106-209 170-344 79 395-1 539-109 693 9-65 16-139 22-225-40 98-64 196-88 287zm169-983c-59-128-83-272-68-438 11-129 67-237 107-389 147 409 94 573 15 752-3-70-9-150-19-243-22 110-28 218-35 318zm-11-1114c-79-102-127-228-142-383-12-121 23-235 35-385 215 337 191 501 146 686-15-64-34-136-60-218-2 106 11 207 21 300zm-219-979c-96-86-166-201-208-351-33-117-18-235-34-385 271 292 277 458 266 648-26-60-58-127-98-204 16 106 47 202 74 292zm-517-1133c-98-49-184-127-260-237-59-86-82-183-137-298 291 179 344 309 390 461-37-43-81-89-134-142 44 80 95 150 141 216zm-600-738c-123-34-235-106-337-222-80-90-117-203-195-330 368 139 444 286 515 462-49-42-106-88-175-139 60 87 129 160 192 229zm-747-686c-116-11-228-59-337-148-85-69-135-165-224-268 352 69 443 189 533 337-51-30-109-63-179-98 67 70 140 124 207 177zm-829-510c-125 21-256 3-399-59-110-49-194-136-319-220 390-28 522 73 663 204-62-18-134-35-217-53 92 54 185 92 272 128zm-1226-397c-136 46-284 54-448 21-128-25-229-95-377-152 429-107 587-34 756 67-70-5-151-8-246-8 108 35 215 53 315 72zm3573 8035c49-159 144-298 293-420 116-94 258-130 420-216-193 471-379 554-601 626 55-60 115-130 182-215-111 69-205 151-294 225zm-4560-8156c468-141 830-77 1025 88 90 76 205 83 318 127-146-25-198-37-307-21-167 24-333 51-471 24-164-33-335-160-565-218zm1350 220c637-81 696 121 941 319-155 57-321 49-504-31-142-62-239-188-437-288zm1008 340c585 83 583 274 747 505-152 12-297-34-437-148-109-89-161-222-310-357zm776 523c157 50 272 101 358 153-70-64-128-142-175-235-77-156-48-329-142-557 698 410 557 616 601 957-60-20-115-46-166-77 139 130 158 272 241 442-167-15-314-93-446-241-102-116-135-269-271-442zm763 749c490 270 447 426 540 673-135-43-251-131-348-273-76-110-92-238-192-400zm690 891c470 455 350 624 353 937-144-89-243-225-298-418-42-150-6-302-55-519zm377 934c382 535 234 679 181 987-125-114-199-266-218-466-16-155 47-298 37-521zm184 1035c272 656 105 767-5 1068 162 639-27 717-186 983-75-154-90-323-37-516 41-148 149-257 219-462-100-153-144-331-126-543 14-165 103-297 135-530zm-166 2043c31 694-181 781-403 1073-45-166-24-349 73-560 75-163 212-284 330-513zm-547-304c44 203 147 309 169 454 27 186-16 349-125 497-133-258-329-334-44-951zm1223 134c-145 814-368 751-653 914-1-223 66-416 210-581 113-129 273-162 443-333zm-1088-719c77 183 204 264 248 397 57 170 35 331-60 490-181-219-403-255-188-887zm1166 0c-14 774-263 762-539 970-40-203-2-393 124-575 97-141 263-204 415-395zm-1128-813c98 186 232 256 291 392 76 175 74 351 0 534-203-211-424-219-291-926zm1144 31c75 781-175 797-426 1037-63-200-47-396 58-592 81-153 239-235 368-445zm-1204-756c115 183 254 260 327 393 93 171 110 336 58 500-222-214-440-242-385-893zm1159-225c197 784-59 866-282 1179-96-190-110-395-32-625 61-178 212-304 314-554zm-1399-438c154 143 299 174 400 282 131 138 190 297 188 479-257-139-459-93-588-761zm1147-197c293 685 75 770-80 1057-114-163-157-344-120-552 28-161 145-279 200-505zm-1415-419c168 121 312 129 424 222 145 119 225 269 249 452-267-101-455-24-673-674zm1053-526c441 694 219 823 101 1161-153-158-231-348-229-579 2-179 109-328 128-582zm-1379-30c179 75 319 47 441 109 157 80 255 207 303 381-272-31-443 93-744-490zm820-780c542 613 344 772 281 1121-176-132-282-306-316-532-26-176 56-337 35-589zm-1339 156c180 71 320 41 443 100 158 77 259 201 312 371-272-25-440 101-755-471zm659-874c656 517 495 703 505 1052-199-103-339-256-418-472-62-168-16-337-87-580zm-1242 392c192 26 320-36 454-9 172 36 300 132 392 283-270 40-402 200-846-274zm-623-315c207 0 356-78 501-68 188 12 457 164 577 299-258-4-541 173-1078-231zm515-1020c752 291 643 514 738 839-215-37-386-139-514-319-100-140-97-313-224-520zm-1114 686c221-10 350-92 506-89 201 4 366 72 504 200-294 87-406 263-1010-111zm263-1024c787 163 713 396 855 697-217-1-402-74-555-228-120-119-143-288-300-469zm-1056 831c206-38 319-146 465-163 188-22 348 33 488 158-266 134-355 345-953 5zm222-1006c799 61 752 299 928 575-216 26-408-22-578-153-132-103-174-265-350-422z"/></svg>