<?xml version="1.0" encoding="UTF-8" standalone="no"?> <svg width="64" height="64" viewBox="0 0 64 64" fill="none" xmlns="http://www.w3.org/2000/svg">
<path d="M32.0001 4.50004C27.0598 4.49212 22.2089 5.81712 17.9586 8.33538C13.7084 10.8536 10.2162 14.4719 7.85017 18.8087C5.48415 23.1456 4.33193 28.0404 4.51495 32.9773C4.69797 37.9142 6.20945 42.7103 8.89009 46.86C7.96144 47.9841 7.48518 49.4139 7.55434 50.8703C7.6235 52.3267 8.23311 53.705 9.2641 54.736C10.2951 55.767 11.6734 56.3766 13.1298 56.4458C14.5862 56.5149 16.016 56.0387 17.1401 55.11C20.7337 57.4216 24.8167 58.8636 29.0649 59.3216C33.3131 59.7797 37.6096 59.2411 41.6134 57.7487C45.6171 56.2563 49.2178 53.8511 52.1297 50.7241C55.0416 47.5971 57.1845 43.8344 58.3883 39.7346C59.592 35.6349 59.8235 31.3109 59.0644 27.1061C58.3053 22.9012 56.5764 18.9312 54.0151 15.5111C51.4537 12.0911 48.1304 9.31523 44.3089 7.40385C40.4874 5.49247 36.2729 4.49823 32.0001 4.50004V4.50004ZM11.3901 52.61C11.1216 52.3425 10.9086 52.0245 10.7632 51.6745C10.6178 51.3244 10.543 50.9491 10.543 50.57C10.543 50.191 10.6178 49.8157 10.7632 49.4656C10.9086 49.1155 11.1216 48.7976 11.3901 48.53C11.7933 48.1283 12.3064 47.855 12.8648 47.7446C13.4232 47.6343 14.0018 47.6919 14.5275 47.9102C15.0531 48.1285 15.5023 48.4976 15.8183 48.971C16.1344 49.4444 16.303 50.0008 16.303 50.57C16.303 51.1392 16.1344 51.6956 15.8183 52.169C15.5023 52.6424 15.0531 53.0116 14.5275 53.2299C14.0018 53.4481 13.4232 53.5057 12.8648 53.3954C12.3064 53.2851 11.7933 53.0118 11.3901 52.61V52.61ZM32.0001 56.5C27.3631 56.5018 22.8219 55.18 18.9101 52.69C19.3237 51.6281 19.4191 50.4687 19.1849 49.3534C18.9506 48.238 18.3968 47.215 17.5909 46.4092C16.7851 45.6033 15.7621 45.0495 14.6468 44.8152C13.5314 44.581 12.3721 44.6765 11.3101 45.09C8.4081 40.4964 7.11613 35.0682 7.63757 29.6598C8.159 24.2514 10.4642 19.17 14.1904 15.2154C17.9165 11.2609 22.8519 8.65775 28.2198 7.81583C33.5876 6.9739 39.0831 7.941 43.841 10.5649C48.5989 13.1888 52.3492 17.3204 54.5014 22.3094C56.6536 27.2985 57.0856 32.8616 55.7293 38.1231C54.373 43.3846 51.3055 48.0456 47.0097 51.3725C42.7138 54.6994 37.4336 56.5032 32.0001 56.5V56.5Z" fill="url(#paint0_linear_183_3777)"/>
<path d="M32.0001 10.5C31.6022 10.5 31.2207 10.658 30.9394 10.9393C30.6581 11.2206 30.5001 11.6022 30.5001 12V31.34L20.0001 40.89C19.8542 41.0226 19.7359 41.1826 19.652 41.3609C19.568 41.5393 19.52 41.7324 19.5107 41.9293C19.5014 42.1262 19.531 42.323 19.5978 42.5084C19.6646 42.6938 19.7673 42.8643 19.9001 43.01C20.0327 43.1559 20.1927 43.2741 20.371 43.3581C20.5493 43.4421 20.7425 43.4901 20.9393 43.4994C21.1362 43.5087 21.333 43.479 21.5185 43.4122C21.7039 43.3454 21.8743 43.2427 22.0201 43.11L33.0201 33.11C33.1723 32.968 33.2934 32.7962 33.376 32.6052C33.4586 32.4141 33.5009 32.2081 33.5001 32V12C33.5001 11.6022 33.342 11.2206 33.0607 10.9393C32.7794 10.658 32.3979 10.5 32.0001 10.5V10.5Z" fill="url(#paint1_linear_183_3777)"/>
<defs>
<linearGradient id="paint0_linear_183_3777" x1="4.50009" y1="32" x2="59.5001" y2="32" gradientUnits="userSpaceOnUse">
<stop stop-color="#19DD33"/>
<stop offset="0.43" stop-color="#0FA922"/>
<stop offset="0.8" stop-color="#088215"/>
<stop offset="1" stop-color="#057310"/>
</linearGradient>
<linearGradient id="paint1_linear_183_3777" x1="292.334" y1="901.528" x2="488.209" y2="901.528" gradientUnits="userSpaceOnUse">
<stop stop-color="#19DD33"/>
<stop offset="0.43" stop-color="#0FA922"/>
<stop offset="0.8" stop-color="#088215"/>
<stop offset="1" stop-color="#057310"/>
</linearGradient>
</defs>
</svg>
